<?xml version="1.0" encoding="UTF-8"?>
<svg version="1.1" xmlns="http://www.w3.org/2000/svg" width="200" height="200">
<path d="M0 0 C66 0 132 0 200 0 C200 66 200 132 200 200 C134 200 68 200 0 200 C0 134 0 68 0 0 Z " fill="#FDFDFD" transform="translate(0,0)"/>
<path d="M0 0 C1.32 0 2.64 0 4 0 C4.66 2.64 5.32 5.28 6 8 C9.63 8.33 13.26 8.66 17 9 C17.30292969 10.22976562 17.60585937 11.45953125 17.91796875 12.7265625 C18.3403042 14.3595929 18.76352857 15.99239358 19.1875 17.625 C19.48237305 18.83736328 19.48237305 18.83736328 19.78320312 20.07421875 C21.23222163 25.55819649 22.99687542 28.95218344 27 33 C31.3876341 35.19381705 37.36600776 34.40849806 42 33.25 C45.54790533 31.03255917 46.28911662 27.34765107 47.2890625 23.453125 C47.50820312 22.60878906 47.72734375 21.76445313 47.953125 20.89453125 C48.28570312 19.58548828 48.28570312 19.58548828 48.625 18.25 C48.85445312 17.36183594 49.08390625 16.47367188 49.3203125 15.55859375 C49.88422605 13.37342873 50.4426514 11.1868487 51 9 C54.63 8.67 58.26 8.34 62 8 C62.66 5.36 63.32 2.72 64 0 C65.32 0 66.64 0 68 0 C68.77674073 11.78919827 68.77674073 11.78919827 65.875 16.3125 C62.5682403 18.25342417 60.75657063 18.14048117 57 18 C56.89187988 18.70672852 56.78375977 19.41345703 56.67236328 20.14160156 C55.40651097 28.0994981 53.72851941 35.91023368 51.875 43.75 C51.59785156 44.9359375 51.32070312 46.121875 51.03515625 47.34375 C50.36015133 50.22997794 49.68172086 53.11535239 49 56 C46 56 46 56 44.3046875 55.01953125 C40.96981961 53.54427613 37.70548709 53.67107575 34.125 53.6875 C33.43019531 53.67138672 32.73539063 53.65527344 32.01953125 53.63867188 C27.26304377 53.63419307 24.07327044 54.5802986 20 57 C16.43641024 44.08928956 13.48243549 31.16106861 11 18 C9.60394531 18.05220703 9.60394531 18.05220703 8.1796875 18.10546875 C5 18 5 18 2.125 16.3125 C-1.1789229 11.16226724 -0.39240655 5.95585939 0 0 Z " fill="#088842" transform="translate(66,33)"/>
<path d="M0 0 C0 0.99 0 1.98 0 3 C0.639375 2.484375 1.27875 1.96875 1.9375 1.4375 C6.15448694 -0.54190203 9.57145563 -0.38236805 14 1 C17.50334571 4.41576207 18.90788005 6.89456065 19.3125 11.75 C19.21713778 17.60947849 16.24602165 20.69602386 12.3125 24.8125 C9 27 9 27 0 28 C0 34.6 0 41.2 0 48 C1.65 48.33 3.3 48.66 5 49 C5 49.66 5 50.32 5 51 C-0.28 51 -5.56 51 -11 51 C-11 50.01 -11 49.02 -11 48 C-9.515 47.505 -9.515 47.505 -8 47 C-8 33.14 -8 19.28 -8 5 C-8.99 4.67 -9.98 4.34 -11 4 C-11 3.34 -11 2.68 -11 2 C-7.17679443 0.57741188 -4.08718695 -0.24042276 0 0 Z " fill="#0F0F0F" transform="translate(153,116)"/>
<path d="M0 0 C9.9 0 19.8 0 30 0 C30 3.3 30 6.6 30 10 C29.01 9.67 28.02 9.34 27 9 C26.67 8.175 26.34 7.35 26 6.5 C24.24187014 3.75854478 24.24187014 3.75854478 21.36328125 3.44921875 C18.58171891 3.2105956 15.79004182 3.09847206 13 3 C13 7.95 13 12.9 13 18 C14.60875 17.9175 16.2175 17.835 17.875 17.75 C18.77992187 17.70359375 19.68484375 17.6571875 20.6171875 17.609375 C23.17110544 17.24388852 23.17110544 17.24388852 24.3203125 14.953125 C24.65675781 13.98632812 24.65675781 13.98632812 25 13 C25.66 13 26.32 13 27 13 C27 17.29 27 21.58 27 26 C26.01 26 25.02 26 24 26 C24 24.68 24 23.36 24 22 C20.37 21.67 16.74 21.34 13 21 C13.33 25.95 13.66 30.9 14 36 C15.65 36.33 17.3 36.66 19 37 C19 37.99 19 38.98 19 40 C12.73 40 6.46 40 0 40 C0 39.01 0 38.02 0 37 C1.98 36.505 1.98 36.505 4 36 C4.33 25.11 4.66 14.22 5 3 C3.35 2.67 1.7 2.34 0 2 C0 1.34 0 0.68 0 0 Z " fill="#171717" transform="translate(28,104)"/>
<path d="M0 0 C2.71564154 2.43904842 3.21594357 4.60539644 3.51171875 8.109375 C3.58440698 9.65565179 3.64259399 11.20266715 3.6875 12.75 C3.73874023 13.93916016 3.73874023 13.93916016 3.79101562 15.15234375 C3.87319104 17.10107504 3.93828045 19.05051362 4 21 C5.32 21.66 6.64 22.32 8 23 C6.14255768 25.37339853 5.02152312 25.9940468 2.0625 26.8125 C-1.10024068 27.00613718 -2.39385869 26.70401547 -5 25 C-5.99 25.66 -6.98 26.32 -8 27 C-10.9375 27.4375 -10.9375 27.4375 -14 27 C-17.19688909 24.29494 -17.90802205 22.64384566 -18.5 18.5 C-16.61862017 14.11011374 -15.24583846 13.85806491 -10.9375 12.0625 C-8.96799935 11.34778039 -6.99123186 10.65173049 -5 10 C-5 7.69 -5 5.38 -5 3 C-6.65 3 -8.3 3 -10 3 C-10.99 4.98 -11.98 6.96 -13 9 C-14.32 8.67 -15.64 8.34 -17 8 C-17 5.75 -17 5.75 -16 3 C-10.89122878 -1.10230507 -6.18591278 -1.67753567 0 0 Z " fill="#0C0C0C" transform="translate(133,117)"/>
<path d="M0 0 C2.8100346 1.79363911 4.50940468 3.01880935 6 6 C6.039992 7.99960012 6.04346799 10.00047242 6 12 C2.53777385 13.06723961 -0.64039266 13.10173486 -4.25 13.0625 C-5.32765625 13.05347656 -6.4053125 13.04445312 -7.515625 13.03515625 C-8.33546875 13.02355469 -9.1553125 13.01195312 -10 13 C-8.90213575 18.40787385 -8.90213575 18.40787385 -5 22 C-1.16163598 22.25032809 2.26351589 21.87917273 6 21 C5.0195412 23.58484592 4.06077857 24.94843031 1.9375 26.75 C-2.11889097 28.47612382 -5.65458749 28.709777 -10 28 C-13.06005926 26.24209361 -14.51102851 24.81495249 -16.3125 21.8125 C-17.65426788 16.32344957 -17.91318882 11.79255584 -15.3125 6.6875 C-10.68432286 1.30880765 -7.21962836 -1.487681 0 0 Z " fill="#121212" transform="translate(78,116)"/>
<path d="M0 0 C7.92 0 15.84 0 24 0 C20.76595745 16.17021277 20.76595745 16.17021277 17.75 19.4375 C14.42892102 21.32447669 12.76264023 21.6271067 9 21 C4.82744353 18.44903614 3.32951005 16.15873537 2.13867188 11.4140625 C1.9153418 10.40472656 1.9153418 10.40472656 1.6875 9.375 C1.51927734 8.694375 1.35105469 8.01375 1.17773438 7.3125 C0 2.44773597 0 2.44773597 0 0 Z " fill="#3DB44C" transform="translate(88,42)"/>
<path d="M0 0 C1.02867188 -0.02320312 1.02867188 -0.02320312 2.078125 -0.046875 C7.36575688 -0.0065114 9.99059472 1.34259334 14 4.5 C13.125 9.25 13.125 9.25 12 11.5 C8.99984088 12.50005304 7.02576244 12.61575585 3.89453125 12.59765625 C2.91162109 12.59443359 1.92871094 12.59121094 0.91601562 12.58789062 C-0.10814453 12.57951172 -1.13230469 12.57113281 -2.1875 12.5625 C-3.22326172 12.55798828 -4.25902344 12.55347656 -5.32617188 12.54882812 C-7.88417266 12.5370401 -10.44205733 12.52058515 -13 12.5 C-13.33 11.18 -13.66 9.86 -14 8.5 C-13.01 8.5 -12.02 8.5 -11 8.5 C-11.99 7.18 -12.98 5.86 -14 4.5 C-9.37327916 0.85645734 -5.93711341 -0.13391985 0 0 Z " fill="#EFFEF5" transform="translate(100,85.5)"/>
<path d="M0 0 C1.65 0 3.3 0 5 0 C5.31453125 1.19238281 5.6290625 2.38476562 5.953125 3.61328125 C6.38464853 5.17989929 6.81698271 6.74629419 7.25 8.3125 C7.55744141 9.49102539 7.55744141 9.49102539 7.87109375 10.69335938 C9.14370494 15.2846883 9.14370494 15.2846883 11.98828125 19.015625 C14.8921165 20.43653079 16.80682399 20.456168 20 20 C23.41011295 17.87642966 24.79059981 16.59175208 26.14453125 12.765625 C26.36496094 11.60546875 26.58539063 10.4453125 26.8125 9.25 C27.04582031 8.07953125 27.27914062 6.9090625 27.51953125 5.703125 C27.67808594 4.81109375 27.83664063 3.9190625 28 3 C30 6 30 6 30 8 C30.66 8 31.32 8 32 8 C30.83192879 17.95475614 30.83192879 17.95475614 27.5625 22.0625 C22.89250822 25.5934694 20.35255795 26.57246851 14.57421875 26.4375 C10.17438121 25.68972792 7.67218094 23.47831373 5 20 C1.51276125 14.0104678 0.95557196 6.74521384 0 0 Z " fill="#EBFCF1" transform="translate(83,42)"/>
<path d="M0 0 C0.99 0.66 1.98 1.32 3 2 C2.67 3.65 2.34 5.3 2 7 C1.29875 6.690625 0.5975 6.38125 -0.125 6.0625 C-3.08936657 4.96697322 -5.87698108 4.43577008 -9 4 C-11.55920313 6.55920313 -12.24016221 8.47517679 -12.3125 12 C-12.18513798 15.11458024 -11.88363167 17.42239877 -10 20 C-5.89592866 22.73604756 -2.88602075 22.32800361 1.875 21.5 C2.57625 21.335 3.2775 21.17 4 21 C3.00449135 23.6245228 2.06036546 24.95028727 -0.125 26.75 C-3.82029119 28.35664835 -7.06902029 28.70003748 -11 28 C-15.06745096 25.89095136 -17.29317038 24.22497735 -19 20 C-19.85941463 15.52800175 -19.97389097 11.61158944 -17.57421875 7.640625 C-12.14577666 1.270633 -8.28304018 -0.52590731 0 0 Z " fill="#090909" transform="translate(108,116)"/>
<path d="M0 0 C1.32 0 2.64 0 4 0 C4.66 2.64 5.32 5.28 6 8 C9.63 8.33 13.26 8.66 17 9 C17.67126129 11.4363189 18.33716354 13.87388883 19 16.3125 C19.19078125 17.00279297 19.3815625 17.69308594 19.578125 18.40429688 C20.37716184 21.35787949 21 23.92559219 21 27 C20.34 27 19.68 27 19 27 C18.34 23.7 17.68 20.4 17 17 C16.45193727 19.19225091 15.93399576 21.39602541 15.5625 23.625 C15 26 15 26 13 28 C12.34 24.7 11.68 21.4 11 18 C10.113125 18.103125 9.22625 18.20625 8.3125 18.3125 C5 18 5 18 2.125 16.3125 C-1.1789229 11.16226724 -0.39240655 5.95585939 0 0 Z " fill="#198A4E" transform="translate(66,33)"/>
<path d="M0 0 C2.52737004 1.91731521 2.9716847 2.91505409 4 6 C4.39712283 11.26187747 3.70025275 14.46357539 1 19 C0 20 0 20 -2.9375 20.125 C-6 20 -6 20 -8 19 C-8 12.73 -8 6.46 -8 0 C-5.06317146 -1.46841427 -3.13175678 -0.76696084 0 0 Z " fill="#F3F3F3" transform="translate(161,121)"/>
<path d="M0 0 C1.8253125 0.00193359 1.8253125 0.00193359 3.6875 0.00390625 C7.13603049 0.45530588 8.63206362 0.9215676 11 3.4375 C11 4.4275 11 5.4175 11 6.4375 C8.65147472 7.61176264 7.26225935 7.55258173 4.6484375 7.53515625 C3.79765625 7.53193359 2.946875 7.52871094 2.0703125 7.52539062 C1.18085937 7.51701172 0.29140625 7.50863281 -0.625 7.5 C-1.5221875 7.49548828 -2.419375 7.49097656 -3.34375 7.48632812 C-5.56256648 7.47452591 -7.78125018 7.45806155 -10 7.4375 C-10.33 6.4475 -10.66 5.4575 -11 4.4375 C-7.65495742 0.21438375 -5.28335802 -0.08395166 0 0 Z " fill="#39B449" transform="translate(100,90.5625)"/>
<path d="M0 0 C-0.680625 0.53625 -1.36125 1.0725 -2.0625 1.625 C-4.359582 3.87969835 -4.359582 3.87969835 -3.75 7 C-3.5025 7.99 -3.255 8.98 -3 10 C-3 11.66666667 -3 13.33333333 -3 15 C-5.25 15.3125 -5.25 15.3125 -8 15 C-10.375 12.9375 -10.375 12.9375 -12 10 C-12.125 6.375 -12.125 6.375 -11 3 C-7.34139468 0.42234625 -4.44339057 -0.39206387 0 0 Z " fill="#0B0B0B" transform="translate(127,129)"/>
<path d="M0 0 C2.64 0 5.28 0 8 0 C8.67126129 2.4363189 9.33716354 4.87388883 10 7.3125 C10.19078125 8.00279297 10.3815625 8.69308594 10.578125 9.40429688 C11.37716184 12.35787949 12 14.92559219 12 18 C11.34 18 10.68 18 10 18 C9.34 14.7 8.68 11.4 8 8 C7.45193727 10.19225091 6.93399576 12.39602541 6.5625 14.625 C6 17 6 17 4 19 C3.34 15.7 2.68 12.4 2 9 C0.02 9 -1.96 9 -4 9 C-4 8.67 -4 8.34 -4 8 C-2.72125 7.9175 -1.4425 7.835 -0.125 7.75 C2.05333418 7.54130069 2.05333418 7.54130069 4 7 C5.5899433 5.07935207 5.5899433 5.07935207 6 3 C4.68 3 3.36 3 2 3 C2 2.34 2 1.68 2 1 C1.34 0.67 0.68 0.34 0 0 Z " fill="#1B894E" transform="translate(75,42)"/>
<path d="M0 0 C0 3.3 0 6.6 0 10 C-1.98 10.33 -3.96 10.66 -6 11 C-8 8 -8 8 -7.9375 5.5 C-6.57992661 1.87980429 -3.92818628 0 0 0 Z " fill="#DBDBDB" transform="translate(130,129)"/>
<path d="M0 0 C4.95 0 9.9 0 15 0 C15 3.3 15 6.6 15 10 C14.01 9.67 13.02 9.34 12 9 C11.649375 8.175 11.29875 7.35 10.9375 6.5 C9.26114446 3.79106792 9.26114446 3.79106792 6.5859375 3.44921875 C4.05196151 3.21009707 1.54433118 3.05250965 -1 3 C-0.67 2.01 -0.34 1.02 0 0 Z " fill="#1D1D1D" transform="translate(43,104)"/>
<path d="M0 0 C1.8253125 0.00193359 1.8253125 0.00193359 3.6875 0.00390625 C7.13603049 0.45530588 8.63206362 0.9215676 11 3.4375 C11 4.4275 11 5.4175 11 6.4375 C8.65147472 7.61176264 7.26225935 7.55258173 4.6484375 7.53515625 C3.79765625 7.53193359 2.946875 7.52871094 2.0703125 7.52539062 C1.18085937 7.51701172 0.29140625 7.50863281 -0.625 7.5 C-1.5221875 7.49548828 -2.419375 7.49097656 -3.34375 7.48632812 C-5.56256648 7.47452591 -7.78125018 7.45806155 -10 7.4375 C-10.33 6.4475 -10.66 5.4575 -11 4.4375 C-7.65495742 0.21438375 -5.28335802 -0.08395166 0 0 Z M-6 1.4375 C-6.66 3.0875 -7.32 4.7375 -8 6.4375 C-3.05 6.4375 1.9 6.4375 7 6.4375 C6.67 4.7875 6.34 3.1375 6 1.4375 C2.04 1.4375 -1.92 1.4375 -6 1.4375 Z " fill="#52AB5F" transform="translate(100,90.5625)"/>
<path d="M0 0 C7.92 0 15.84 0 24 0 C23.67 0.99 23.34 1.98 23 3 C23 2.34 23 1.68 23 1 C16.4 1.33 9.8 1.66 3 2 C4.16668511 11.76834063 4.16668511 11.76834063 9 20 C5.83884224 18.63016497 5.0072908 18.0109362 3 15 C2.38726702 12.42820792 1.85031623 9.90792583 1.375 7.3125 C0.92125 4.899375 0.4675 2.48625 0 0 Z " fill="#6EBF7C" transform="translate(88,42)"/>
<path d="M0 0 C0.33 0.66 0.66 1.32 1 2 C2.32 1.67 3.64 1.34 5 1 C5 2.32 5 3.64 5 5 C3 7 3 7 1.125 7.265625 C0.42375 7.26046875 -0.2775 7.2553125 -1 7.25 C-1.70125 7.25515625 -2.4025 7.2603125 -3.125 7.265625 C-5 7 -5 7 -7 5 C-7 3.68 -7 2.36 -7 1 C-6.401875 1.20625 -5.80375 1.4125 -5.1875 1.625 C-2.71549154 2.30671915 -2.71549154 2.30671915 0 0 Z " fill="#02863D" transform="translate(76,43)"/>
<path d="M0 0 C0 0.99 0 1.98 0 3 C3.63 3.33 7.26 3.66 11 4 C11 4.33 11 4.66 11 5 C9.75283203 5.09087891 9.75283203 5.09087891 8.48046875 5.18359375 C6.85044922 5.30927734 6.85044922 5.30927734 5.1875 5.4375 C4.10855469 5.51871094 3.02960938 5.59992188 1.91796875 5.68359375 C-1.05989905 5.90212461 -1.05989905 5.90212461 -4 7 C-4 8.65 -4 10.3 -4 12 C-4.99 12 -5.98 12 -7 12 C-7.33 10.68 -7.66 9.36 -8 8 C-7.01 8 -6.02 8 -5 8 C-5.99 6.68 -6.98 5.36 -8 4 C-2.25 0 -2.25 0 0 0 Z " fill="#E1FBE6" transform="translate(94,86)"/>
<path d="M0 0 C0.78375 0.04125 1.5675 0.0825 2.375 0.125 C2.705 2.435 3.035 4.745 3.375 7.125 C0.405 7.125 -2.565 7.125 -5.625 7.125 C-4.53409091 0.21590909 -4.53409091 0.21590909 0 0 Z " fill="#F1F1F1" transform="translate(73.625,118.875)"/>
<path d="M0 0 C0.99 0.66 1.98 1.32 3 2 C2.67 3.65 2.34 5.3 2 7 C1.319375 6.690625 0.63875 6.38125 -0.0625 6.0625 C-3.36965912 4.86629351 -6.51545878 4.40994603 -10 4 C-10 3.01 -10 2.02 -10 1 C-6.87293041 -0.5635348 -3.42017557 -0.39958487 0 0 Z " fill="#151515" transform="translate(108,116)"/>
<path d="M0 0 C0.66 0 1.32 0 2 0 C2.48108275 1.41601714 2.95978141 2.83284437 3.4375 4.25 C3.83775391 5.43335937 3.83775391 5.43335937 4.24609375 6.640625 C5 9 5 9 5.47265625 11.171875 C5.90642361 13.22870542 5.90642361 13.22870542 8 15 C8.625 17.625 8.625 17.625 9 20 C7.02 20.99 7.02 20.99 5 22 C4.1606242 18.89743488 3.3295495 15.79270556 2.5 12.6875 C2.26152344 11.80642578 2.02304688 10.92535156 1.77734375 10.01757812 C1.55175781 9.17001953 1.32617188 8.32246094 1.09375 7.44921875 C0.88427734 6.66893311 0.67480469 5.88864746 0.45898438 5.0847168 C0 3 0 3 0 0 Z " fill="#13864A" transform="translate(81,68)"/>
<path d="M0 0 C0 0.66 0 1.32 0 2 C-0.8971875 2.061875 -0.8971875 2.061875 -1.8125 2.125 C-4.35100832 2.87739901 -4.35100832 2.87739901 -5.75 6.0625 C-6.1625 7.031875 -6.575 8.00125 -7 9 C-8.32 8.67 -9.64 8.34 -11 8 C-11 5.75 -11 5.75 -10 3 C-3.37579618 -1.68789809 -3.37579618 -1.68789809 0 0 Z " fill="#121212" transform="translate(127,117)"/>
<path d="M0 0 C2.31 0 4.62 0 7 0 C5 3 5 3 2 4 C1.30580103 6.07883627 1.30580103 6.07883627 1 8.5 C0.625 10.96875 0.625 10.96875 0 13 C-0.99 13.33 -1.98 13.66 -3 14 C-2.68872484 12.41642541 -2.37592711 10.83315007 -2.0625 9.25 C-1.80146484 7.92742188 -1.80146484 7.92742188 -1.53515625 6.578125 C-1.07631512 4.36764947 -0.56663926 2.18487932 0 0 Z " fill="#298E5A" transform="translate(117,42)"/>
<path d="M0 0 C0.9075 0.825 1.815 1.65 2.75 2.5 C7.73310905 6.14743033 13.0892078 5.43675804 19 5 C18.67 5.66 18.34 6.32 18 7 C13.38 7 8.76 7 4 7 C4 6.34 4 5.68 4 5 C2.68 4.67 1.36 4.34 0 4 C0 2.68 0 1.36 0 0 Z " fill="#268B57" transform="translate(88,62)"/>
<path d="M0 0 C1.31625194 2.63250388 0.74813658 3.80179056 0.0625 6.625 C-0.13214844 7.44226563 -0.32679687 8.25953125 -0.52734375 9.1015625 C-0.76130859 10.04128906 -0.76130859 10.04128906 -1 11 C-1.99 11 -2.98 11 -4 11 C-4.66 10.34 -5.32 9.68 -6 9 C-4.02 6.03 -2.04 3.06 0 0 Z " fill="#288E59" transform="translate(116,78)"/>
<path d="M0 0 C5.28 0 10.56 0 16 0 C15.67 2.97 15.34 5.94 15 9 C14.67 9 14.34 9 14 9 C13.67 6.36 13.34 3.72 13 1 C8.71 1 4.42 1 0 1 C0 0.67 0 0.34 0 0 Z " fill="#4AAD57" transform="translate(95,43)"/>
<path d="M0 0 C0.33 0 0.66 0 1 0 C1.12375 1.11375 1.2475 2.2275 1.375 3.375 C1.6465813 7.03103677 1.6465813 7.03103677 4 9 C2.68 10.32 1.36 11.64 0 13 C-0.66 12.01 -1.32 11.02 -2 10 C-2.66 9.67 -3.32 9.34 -4 9 C-3.525625 8.62875 -3.05125 8.2575 -2.5625 7.875 C-0.47794198 5.37353038 -0.35378509 3.18406582 0 0 Z " fill="#DCF7E4" transform="translate(109,52)"/>
<path d="M0 0 C0.66 0.33 1.32 0.66 2 1 C2.73075648 3.3140622 3.40138258 5.64828869 4 8 C3.34 8 2.68 8 2 8 C2 7.34 2 6.68 2 6 C1.01 6 0.02 6 -1 6 C-1 6.66 -1 7.32 -1 8 C-1.66 7.67 -2.32 7.34 -3 7 C-2.01 4.69 -1.02 2.38 0 0 Z " fill="#656565" transform="translate(97,152)"/>
<path d="M0 0 C0.66 0 1.32 0 2 0 C4.32637691 5.79622721 5.43680971 9.86090397 4 16 C3.67 16 3.34 16 3 16 C2.49595192 13.89679937 1.99689492 11.79240209 1.5 9.6875 C1.08234375 7.92986328 1.08234375 7.92986328 0.65625 6.13671875 C0 3 0 3 0 0 Z " fill="#248A58" transform="translate(81,68)"/>
<path d="M0 0 C3.63 0 7.26 0 11 0 C10.67 0.66 10.34 1.32 10 2 C7.49609375 2.4140625 7.49609375 2.4140625 4.4375 2.625 C3.42558594 2.69976562 2.41367188 2.77453125 1.37109375 2.8515625 C0.58863281 2.90054688 -0.19382812 2.94953125 -1 3 C-0.67 2.01 -0.34 1.02 0 0 Z " fill="#FBFEFE" transform="translate(94,87)"/>
<path d="M0 0 C2.64 0 5.28 0 8 0 C8.33 1.98 8.66 3.96 9 6 C8.38125 5.2575 8.38125 5.2575 7.75 4.5 C5.87797662 2.56613908 5.87797662 2.56613908 2 3 C2 2.34 2 1.68 2 1 C1.34 0.67 0.68 0.34 0 0 Z " fill="#389463" transform="translate(75,42)"/>
<path d="M0 0 C0.66 0 1.32 0 2 0 C2 2.64 2 5.28 2 8 C1.01 8.33 0.02 8.66 -1 9 C-1.66 8.34 -2.32 7.68 -3 7 C-2.34 6.34 -1.68 5.68 -1 5 C-0.35232207 2.42938689 -0.35232207 2.42938689 0 0 Z " fill="#088341" transform="translate(131,34)"/>
<path d="M0 0 C0.99 0 1.98 0 3 0 C3 2.97 3 5.94 3 9 C2.01 9 1.02 9 0 9 C0 6.03 0 3.06 0 0 Z " fill="#6C6C6C" transform="translate(75,152)"/>
<path d="M0 0 C0.66 0 1.32 0 2 0 C2 2.64 2 5.28 2 8 C0.68 7.34 -0.64 6.68 -2 6 C-2 5.34 -2 4.68 -2 4 C-1.34 4 -0.68 4 0 4 C0 2.68 0 1.36 0 0 Z " fill="#7C7C7C" transform="translate(111,152)"/>
<path d="M0 0 C0.66 0.33 1.32 0.66 2 1 C1.01 2.98 0.02 4.96 -1 7 C-1.99 6.67 -2.98 6.34 -4 6 C-3.6875 4.125 -3.6875 4.125 -3 2 C-2.01 1.34 -1.02 0.68 0 0 Z " fill="#5CAF69" transform="translate(93,91)"/>
<path d="M0 0 C1.485 0.99 1.485 0.99 3 2 C2.25 6.75 2.25 6.75 0 9 C-0.33 7.35 -0.66 5.7 -1 4 C-0.34 4 0.32 4 1 4 C0.67 2.68 0.34 1.36 0 0 Z " fill="#E3FBEB" transform="translate(111,88)"/>
</svg>
