<?xml version="1.0" encoding="UTF-8"?>
<svg version="1.1" xmlns="http://www.w3.org/2000/svg" width="1920" height="600">
<path d="M0 0 C633.6 0 1267.2 0 1920 0 C1920 198 1920 396 1920 600 C1286.4 600 652.8 600 0 600 C0 402 0 204 0 0 Z " fill="#101111" transform="translate(0,0)"/>
<path d="M0 0 C2.31 0 4.62 0 7 0 C7.16435547 0.99580078 7.16435547 0.99580078 7.33203125 2.01171875 C8.45676634 9.01585144 8.45676634 9.01585144 12 15 C16.57394956 16.89784773 20.97746433 17.39720764 25.875 17.625 C26.56335938 17.66367188 27.25171875 17.70234375 27.9609375 17.7421875 C29.64023246 17.83548166 31.32007767 17.91878238 33 18 C33.13051758 18.66942627 33.26103516 19.33885254 33.39550781 20.02856445 C34.00462095 23.12506735 34.62723685 26.21871466 35.25 29.3125 C35.45496094 30.36501953 35.65992188 31.41753906 35.87109375 32.50195312 C38.27471846 44.33798387 40.96496009 54.62613688 50.73828125 62.37890625 C56.88324227 66.15535981 64.05423138 65.98021873 71 65 C78.72966031 62.53574964 82.67174424 58.80647212 86.63476562 51.86230469 C88.94121866 47.02667246 90.10115875 42.0247144 91.25 36.8125 C91.73356436 34.73548819 92.217919 32.65866018 92.703125 30.58203125 C92.92291016 29.61990723 93.14269531 28.6577832 93.36914062 27.66650391 C94.14025939 24.40715441 95.03815731 21.20765463 96 18 C97.39412109 17.94392578 97.39412109 17.94392578 98.81640625 17.88671875 C108.34810836 17.52140735 108.34810836 17.52140735 117 14 C118.80372143 11.12396308 119.30172644 8.669266 119.5625 5.3125 C119.90035587 1.09964413 119.90035587 1.09964413 121 0 C123.33297433 -0.04092937 125.66705225 -0.04241723 128 0 C128.08761663 3.54150893 128.14059739 7.08273633 128.1875 10.625 C128.21263672 11.62402344 128.23777344 12.62304688 128.26367188 13.65234375 C128.32710228 20.03767136 127.96412179 24.67227927 123.53515625 29.64453125 C117.80767024 34.18702016 114.06540817 34.1177568 107 34 C106.90565674 34.73105957 106.81131348 35.46211914 106.71411133 36.21533203 C105.46214666 45.13515061 103.47791941 53.75691846 101.28707886 62.48501587 C100.2671259 66.55065521 99.26601742 70.62091664 98.265625 74.69140625 C98.06883652 75.49114365 97.87204803 76.29088104 97.66929626 77.11485291 C95.24046206 87.03193921 93.08275028 97.00489189 91 107 C87.62094179 105.72271451 84.60106338 104.21075558 81.4765625 102.41015625 C75.45381154 99.37646602 70.01790887 99.28979109 63.375 99.4375 C61.75464844 99.42106445 61.75464844 99.42106445 60.1015625 99.40429688 C52.2084738 99.47648976 46.53012865 100.6556676 40.625 106.25 C40.08875 106.8275 39.5525 107.405 39 108 C38.34 108 37.68 108 37 108 C36.81566406 106.98550781 36.63132812 105.97101563 36.44140625 104.92578125 C33.71912849 90.4740016 30.20599808 76.22752966 26.68644714 61.95439148 C25.18155164 55.84744259 23.67831517 49.73998376 22.22265625 43.62109375 C21.98426025 42.62392334 21.74586426 41.62675293 21.50024414 40.59936523 C21 38 21 38 21 34 C20.34773438 34.04640625 19.69546875 34.0928125 19.0234375 34.140625 C13.09011168 34.3856591 9.64138262 34.08883707 5 30 C1.09355238 25.67123372 -0.13106022 22.67341733 -0.09765625 16.89453125 C-0.09443359 15.91162109 -0.09121094 14.92871094 -0.08789062 13.91601562 C-0.07951172 12.89185547 -0.07113281 11.86769531 -0.0625 10.8125 C-0.05798828 9.77673828 -0.05347656 8.74097656 -0.04882812 7.67382812 C-0.0370401 5.11582734 -0.02058515 2.55794267 0 0 Z " fill="#FAFAFA" transform="translate(488,188)"/>
<path d="M0 0 C2.31 0 4.62 0 7 0 C7.08761663 3.54150893 7.14059739 7.08273633 7.1875 10.625 C7.21263672 11.62402344 7.23777344 12.62304688 7.26367188 13.65234375 C7.33597687 20.931047 6.38970219 25.25184248 1.5 30.875 C-2.72275081 34.22962184 -7.89833384 33.4084964 -13 33 C-13.1131958 33.58555664 -13.2263916 34.17111328 -13.34301758 34.77441406 C-14.65659455 41.46624603 -16.14023697 48.10871856 -17.6875 54.75 C-17.94370117 55.85456543 -18.19990234 56.95913086 -18.46386719 58.09716797 C-19.30758361 61.73183348 -20.15374091 65.36592572 -21 69 C-21.3101352 70.33429209 -21.62019234 71.66860233 -21.93017578 73.00292969 C-22.71602024 76.38548747 -23.50272894 79.767843 -24.29019165 83.15002441 C-24.74015445 85.08271124 -25.18978311 87.01547586 -25.6394043 88.94824219 C-27.04607904 94.97812561 -28.47362336 100.99924478 -30 107 C-32.17503665 105.99016155 -34.03589517 104.97221019 -35.9375 103.5 C-42.17123119 98.96637732 -48.92275984 99.63287399 -56.3125 99.625 C-57.51068359 99.60050781 -58.70886719 99.57601562 -59.94335938 99.55078125 C-67.12867696 99.52702813 -71.93161278 100.05874969 -78 104 C-78.52247314 104.53963379 -79.04494629 105.07926758 -79.58325195 105.63525391 C-81 107 -81 107 -83 107 C-95.34271353 56.46936454 -95.34271353 56.46936454 -100 34 C-101.08667969 33.96132813 -101.08667969 33.96132813 -102.1953125 33.921875 C-108.1836688 33.5705581 -112.36821546 33.16860608 -117 29 C-119.59560602 25.36212798 -120.36755726 22.93091644 -120.29296875 18.48046875 C-120.28330078 17.45888672 -120.27363281 16.43730469 -120.26367188 15.38476562 C-120.23853516 14.32966797 -120.21339844 13.27457031 -120.1875 12.1875 C-120.17396484 11.11306641 -120.16042969 10.03863281 -120.14648438 8.93164062 C-120.11122577 6.28724545 -120.06194366 3.64388252 -120 1 C-118.02 1 -116.04 1 -114 1 C-113.81824219 1.75925781 -113.63648438 2.51851563 -113.44921875 3.30078125 C-113.19785156 4.29464844 -112.94648437 5.28851563 -112.6875 6.3125 C-112.44386719 7.29863281 -112.20023438 8.28476562 -111.94921875 9.30078125 C-110.98286703 12.04871967 -110.28832457 13.25409311 -108 15 C-105.40742331 15.86419223 -103.65962293 16.17580932 -100.98828125 16.31640625 C-100.23095703 16.35830078 -99.47363281 16.40019531 -98.69335938 16.44335938 C-97.51483398 16.50233398 -97.51483398 16.50233398 -96.3125 16.5625 C-95.51521484 16.60568359 -94.71792969 16.64886719 -93.89648438 16.69335938 C-91.93118553 16.79927368 -89.96561504 16.90012551 -88 17 C-87.82984375 17.83660156 -87.6596875 18.67320312 -87.484375 19.53515625 C-85.62720162 28.45551563 -83.50195602 37.23804791 -81 46 C-80.77699219 46.81726563 -80.55398438 47.63453125 -80.32421875 48.4765625 C-78.33799688 54.78860502 -74.39788582 58.82663529 -68.9296875 62.32421875 C-63.09919711 65.30215739 -57.45140611 66.11859058 -51 65 C-43.98978179 62.70085665 -37.982136 59.52551328 -34.234375 53 C-31.32322604 45.92480253 -29.67542374 38.44632773 -28 31 C-27.75008301 29.89398438 -27.75008301 29.89398438 -27.49511719 28.765625 C-26.62004966 24.85227952 -25.78888194 20.93158233 -25 17 C-23.35451172 16.92652344 -23.35451172 16.92652344 -21.67578125 16.8515625 C-20.22133075 16.77649409 -18.76690484 16.70094803 -17.3125 16.625 C-16.59126953 16.5940625 -15.87003906 16.563125 -15.12695312 16.53125 C-11.08069989 16.30953749 -7.61645106 16.00763732 -4 14 C-1.45872044 9.3712408 -0.53938958 5.28601792 0 0 Z " fill="#FBFBFB" transform="translate(796,423)"/>
<path d="M0 0 C0.33 2.64 0.66 5.28 1 8 C1.57105469 7.566875 2.14210938 7.13375 2.73046875 6.6875 C9.69477987 1.90438012 15.62125973 0.45847957 24 2 C29.95963582 4.34347977 34.38079747 8.42400626 37.1875 14.18359375 C39.64608336 22.70589471 39.17172488 32.82195809 35.31640625 40.828125 C30.07955854 49.46814673 23.09402911 54.14747573 14.0625 58.375 C11.02386717 58.99512915 8.40216116 59.06182606 5.30859375 59.0390625 C3.81863892 59.03060303 3.81863892 59.03060303 2.29858398 59.02197266 C1.54005127 59.01472168 0.78151855 59.0074707 0 59 C0.09339475 64.51788338 0.19945631 70.03532065 0.31738281 75.55273438 C0.35571977 77.43059576 0.39056427 79.30853176 0.421875 81.18652344 C0.46742363 83.88243321 0.52543375 86.57782712 0.5859375 89.2734375 C0.59748871 90.11619232 0.60903992 90.95894714 0.62094116 91.82723999 C0.54193181 96.39020957 0.54193181 96.39020957 3 100 C5.31765729 100.71927295 7.65095874 101.3909893 10 102 C10 103.32 10 104.64 10 106 C-0.89 106 -11.78 106 -23 106 C-23 104.35 -23 102.7 -23 101 C-19.535 100.01 -19.535 100.01 -16 99 C-16 70.29 -16 41.58 -16 12 C-17.98 11.34 -19.96 10.68 -22 10 C-22 8.35 -22 6.7 -22 5 C-20.87980469 4.72285156 -19.75960938 4.44570313 -18.60546875 4.16015625 C-17.13279698 3.79433333 -15.66014158 3.42844447 -14.1875 3.0625 C-13.08051758 2.78889648 -13.08051758 2.78889648 -11.95117188 2.50976562 C-1.86647727 0 -1.86647727 0 0 0 Z " fill="#F3F3F3" transform="translate(1082,487)"/>
<path d="M0 0 C0 2.64 0 5.28 0 8 C0.81082031 7.4946875 1.62164063 6.989375 2.45703125 6.46875 C9.49293645 2.3405821 15.6513015 -0.99201469 24 1 C30.72148088 3.9000782 34.87651965 8.46021302 38 15 C40.58720075 22.76160226 39.66880021 31.38122916 36.25390625 38.72265625 C30.7016189 48.80671708 23.09118425 54.29552814 12.36328125 58.31640625 C7.94546233 59.59428776 4.31731712 59.43910571 0 58 C0.09339475 63.51788338 0.19945631 69.03532065 0.31738281 74.55273438 C0.35571977 76.43059576 0.39056427 78.30853176 0.421875 80.18652344 C0.46742363 82.88243321 0.52543375 85.57782712 0.5859375 88.2734375 C0.59748871 89.11619232 0.60903992 89.95894714 0.62094116 90.82723999 C0.54193181 95.39020957 0.54193181 95.39020957 3 99 C5.31765729 99.71927295 7.65095874 100.3909893 10 101 C10 102.32 10 103.64 10 105 C-0.56 105 -11.12 105 -22 105 C-22 103.35 -22 101.7 -22 100 C-21.030625 99.87625 -20.06125 99.7525 -19.0625 99.625 C-17.5465625 99.315625 -17.5465625 99.315625 -16 99 C-14.42331158 95.84662316 -14.85273613 92.46435656 -14.85473633 89.00195312 C-14.85137772 88.17582016 -14.8480191 87.34968719 -14.84455872 86.4985199 C-14.83503598 83.75941477 -14.83310506 81.02037066 -14.83203125 78.28125 C-14.82882001 76.38317845 -14.82545605 74.48510715 -14.82194519 72.58703613 C-14.81595091 68.60570705 -14.81410564 64.62439969 -14.81469727 60.64306641 C-14.814799 55.5314904 -14.80113622 50.42005295 -14.78392506 45.30850983 C-14.77282976 41.388116 -14.77077728 37.46775595 -14.77130699 33.54734802 C-14.77012354 31.66222149 -14.76568149 29.77709418 -14.75797462 27.89198303 C-14.74822273 25.26057094 -14.75103343 22.62946344 -14.75708008 19.99804688 C-14.74865082 18.82132668 -14.74865082 18.82132668 -14.74005127 17.62083435 C-14.60936952 13.34826481 -14.60936952 13.34826481 -17 10 C-19.06874034 9.3574765 -19.06874034 9.3574765 -21 9 C-21 7.68 -21 6.36 -21 5 C-18.2518872 4.15996552 -15.50180419 3.32777849 -12.75 2.5 C-11.97269531 2.26152344 -11.19539062 2.02304688 -10.39453125 1.77734375 C-9.64042969 1.55175781 -8.88632812 1.32617188 -8.109375 1.09375 C-7.07248535 0.77954102 -7.07248535 0.77954102 -6.01464844 0.45898438 C-4 0 -4 0 0 0 Z " fill="#F9F9F9" transform="translate(894,253)"/>
<path d="M0 0 C19.8 0 39.6 0 60 0 C60.33 6.6 60.66 13.2 61 20 C59.35 20 57.7 20 56 20 C55.67386719 19.31292969 55.34773437 18.62585938 55.01171875 17.91796875 C54.57472656 17.01691406 54.13773438 16.11585938 53.6875 15.1875 C53.25824219 14.29417969 52.82898438 13.40085937 52.38671875 12.48046875 C51.05092247 10.09108667 50.12514136 8.68909206 48 7 C45.58936558 6.49669238 45.58936558 6.49669238 42.89453125 6.48828125 C41.56578979 6.43861206 41.56578979 6.43861206 40.21020508 6.38793945 C39.0889624 6.36304443 37.96771973 6.33814941 36.8125 6.3125 C33.244375 6.209375 29.67625 6.10625 26 6 C26 16.23 26 26.46 26 37 C29.238125 36.938125 32.47625 36.87625 35.8125 36.8125 C36.82932861 36.80581299 37.84615723 36.79912598 38.89379883 36.79223633 C41.34874409 36.70644721 43.60603824 36.56161466 46 36 C48.42460535 33.21351325 49.33234425 30.60534107 50 27 C51.65 27 53.3 27 55 27 C55 35.91 55 44.82 55 54 C53.35 54 51.7 54 50 54 C49.80664062 53.43410156 49.61328125 52.86820313 49.4140625 52.28515625 C49.02347656 51.18494141 49.02347656 51.18494141 48.625 50.0625 C48.24214844 48.96615234 48.24214844 48.96615234 47.8515625 47.84765625 C47.14728587 45.81317884 47.14728587 45.81317884 45 45 C43.5534758 44.84932786 42.1012066 44.75138964 40.6484375 44.68359375 C39.37226562 44.62075195 39.37226562 44.62075195 38.0703125 44.55664062 C37.18085937 44.51732422 36.29140625 44.47800781 35.375 44.4375 C34.4778125 44.39431641 33.580625 44.35113281 32.65625 44.30664062 C30.43765717 44.20043139 28.2189512 44.09838806 26 44 C26.09347301 48.09381399 26.19955156 52.18708609 26.31738281 56.28027344 C26.35569327 57.67308572 26.39054259 59.06599765 26.421875 60.45898438 C26.46747907 62.45986308 26.52651623 64.46042146 26.5859375 66.4609375 C26.63306885 68.26763916 26.63306885 68.26763916 26.68115234 70.11083984 C26.70915226 73.1260018 26.70915226 73.1260018 29 75 C31.20250992 75.46006346 31.20250992 75.46006346 33.625 75.625 C34.44226563 75.69976563 35.25953125 75.77453125 36.1015625 75.8515625 C37.04128906 75.92503906 37.04128906 75.92503906 38 76 C38 77.65 38 79.3 38 81 C25.46 81 12.92 81 0 81 C0 79.35 0 77.7 0 76 C0.56589844 75.86722656 1.13179687 75.73445312 1.71484375 75.59765625 C2.81505859 75.33275391 2.81505859 75.33275391 3.9375 75.0625 C4.66839844 74.88847656 5.39929688 74.71445312 6.15234375 74.53515625 C7.99969898 74.16112431 7.99969898 74.16112431 9 73 C9.10986361 70.98608447 9.14912091 68.9682902 9.16113281 66.95141602 C9.17554413 65.00918907 9.17554413 65.00918907 9.19024658 63.02772522 C9.19509365 61.60312067 9.1993727 60.1785141 9.203125 58.75390625 C9.2088736 57.30281063 9.21463137 55.85171505 9.22039795 54.40061951 C9.23091629 51.3548853 9.2367536 48.30917756 9.24023438 45.26342773 C9.2457235 41.35456405 9.26975651 37.44604797 9.29820633 33.53729343 C9.31679984 30.53906726 9.32203652 27.54092538 9.32357025 24.54264641 C9.32660436 23.1012882 9.33465832 21.65993173 9.34775543 20.21862984 C9.36474691 18.20514901 9.36110093 16.19152566 9.35644531 14.17797852 C9.36009094 13.03071793 9.36373657 11.88345734 9.36749268 10.70143127 C9.1855838 9.36422279 9.1855838 9.36422279 9 8 C5.81237635 5.87491756 3.73487777 5.4979837 0 5 C0 3.35 0 1.7 0 0 Z " fill="#F4F4F3" transform="translate(826,464)"/>
<path d="M0 0 C19.8 0 39.6 0 60 0 C61.125 10.125 61.125 10.125 61.0625 15.0625 C61.05347656 16.00222656 61.04445313 16.94195312 61.03515625 17.91015625 C61.02355469 18.59980469 61.01195312 19.28945312 61 20 C59.35 20 57.7 20 56 20 C55.65388672 19.09507812 55.65388672 19.09507812 55.30078125 18.171875 C54.97464844 17.37265625 54.64851562 16.5734375 54.3125 15.75 C53.99925781 14.96109375 53.68601562 14.1721875 53.36328125 13.359375 C51.54523987 10.21296528 50.18260188 8.82336566 47 7 C43.54219376 6.52725161 40.16883494 6.62304854 36.6875 6.75 C31.8921875 6.87375 31.8921875 6.87375 27 7 C26.67 17.23 26.34 27.46 26 38 C30.6096875 37.8453125 30.6096875 37.8453125 35.3125 37.6875 C36.75943237 37.65015747 36.75943237 37.65015747 38.2355957 37.61206055 C38.99960693 37.57894775 39.76361816 37.54583496 40.55078125 37.51171875 C41.33106689 37.48553467 42.11135254 37.45935059 42.9152832 37.43237305 C45.52668245 36.89076536 46.39399916 36.10452964 48 34 C48.74386068 31.69011685 49.42190703 29.35684056 50 27 C51.65 27 53.3 27 55 27 C55 35.91 55 44.82 55 54 C53.35 54 51.7 54 50 54 C49.731875 52.88625 49.46375 51.7725 49.1875 50.625 C48.34190981 46.78159049 48.34190981 46.78159049 45 45 C42.87662229 44.63566627 42.87662229 44.63566627 40.55078125 44.5859375 C39.70322266 44.54726563 38.85566406 44.50859375 37.98242188 44.46875 C37.10134766 44.4378125 36.22027344 44.406875 35.3125 44.375 C34.41982422 44.33632813 33.52714844 44.29765625 32.60742188 44.2578125 C30.4051538 44.16359782 28.20289278 44.07798412 26 44 C26.10984901 48.41718056 26.24048753 52.8335071 26.375 57.25 C26.4059375 58.50425781 26.436875 59.75851562 26.46875 61.05078125 C26.50742187 62.25605469 26.54609375 63.46132813 26.5859375 64.703125 C26.63306885 66.36843262 26.63306885 66.36843262 26.68115234 68.06738281 C26.99082014 70.91556776 27.41636203 72.63290734 29 75 C31.17208588 75.91160093 31.17208588 75.91160093 33.625 76.25 C34.44226563 76.39953125 35.25953125 76.5490625 36.1015625 76.703125 C36.72804688 76.80109375 37.35453125 76.8990625 38 77 C38 78.32 38 79.64 38 81 C25.46 81 12.92 81 0 81 C0 79.68 0 78.36 0 77 C0.63808594 76.80664062 1.27617188 76.61328125 1.93359375 76.4140625 C3.17302734 76.02347656 3.17302734 76.02347656 4.4375 75.625 C5.26121094 75.36976563 6.08492187 75.11453125 6.93359375 74.8515625 C9.17798016 74.19117773 9.17798016 74.19117773 10 72 C10.11185681 70.01472433 10.1592994 68.02569907 10.17700195 66.03735352 C10.18983719 64.78588028 10.20267242 63.53440704 10.21589661 62.24501038 C10.22406248 60.87297968 10.23150651 59.50094452 10.23828125 58.12890625 C10.24235678 57.43943342 10.2464323 56.74996059 10.25063133 56.03959465 C10.27148566 52.39220351 10.28579161 48.74484996 10.29516602 45.09741211 C10.30624573 41.32644608 10.34066432 37.55606769 10.38033772 33.78530979 C10.40645021 30.88826889 10.41485286 27.99136936 10.41844749 25.09422112 C10.42332533 23.70390784 10.43497343 22.31360137 10.45348549 20.92340279 C10.47776402 18.97975939 10.47450328 17.03583076 10.4699707 15.09204102 C10.47583694 13.98554703 10.48170319 12.87905304 10.48774719 11.73902893 C10.25113854 8.90378161 10.25113854 8.90378161 8.17375183 7.16221619 C5.47822289 5.72102712 3.01986965 5.34316701 0 5 C0 3.35 0 1.7 0 0 Z " fill="#FAFAFA" transform="translate(638,229)"/>
<path d="M0 0 C4.79557171 2.69193802 7.45247908 6.06162235 9.6640625 11.1171875 C10.04765162 13.8616784 10.24595723 16.21642942 10.23828125 18.94921875 C10.25244583 19.66704025 10.26661041 20.38486176 10.28120422 21.12443542 C10.32277459 23.39300949 10.33828844 25.66078782 10.3515625 27.9296875 C10.38065014 30.21607249 10.41515683 32.50225947 10.45405579 34.78849792 C10.47649555 36.20516448 10.49234396 37.62195415 10.50090027 39.03877258 C10.49451991 42.70126064 10.49451991 42.70126064 11.6640625 46.1171875 C13.6440625 46.1171875 15.6240625 46.1171875 17.6640625 46.1171875 C18.1590625 48.0971875 18.1590625 48.0971875 18.6640625 50.1171875 C8.90022486 57.3570399 8.90022486 57.3570399 2.6640625 57.1171875 C-0.13783196 55.35077578 -1.85118661 54.08668928 -3.3359375 51.1171875 C-6.41358484 52.23633199 -8.92056017 53.48528326 -11.7109375 55.2421875 C-15.37524056 57.35651421 -18.07793646 57.73653311 -22.3359375 57.1171875 C-27.18170741 54.45676481 -31.54949806 51.47650581 -33.3359375 46.1171875 C-33.6796875 43.62890625 -33.6796875 43.62890625 -33.8359375 40.8046875 C-33.94421875 39.41830078 -33.94421875 39.41830078 -34.0546875 38.00390625 C-32.93218286 33.49558599 -30.17465191 31.5505606 -26.3359375 29.1171875 C-22.77211046 27.40434835 -19.12660574 26.05201558 -15.3984375 24.7421875 C-13.9434082 24.21044922 -13.9434082 24.21044922 -12.45898438 23.66796875 C-10.0891726 22.80409648 -7.71529511 21.95432743 -5.3359375 21.1171875 C-5.29370954 19.34004731 -5.26342523 17.56262024 -5.23828125 15.78515625 C-5.22015381 14.79539795 -5.20202637 13.80563965 -5.18334961 12.78588867 C-5.14159111 9.985061 -5.14159111 9.985061 -6.8984375 7.4296875 C-10.28759922 5.60475426 -12.54890432 5.56634631 -16.3359375 6.1171875 C-19.40260461 8.74575931 -20.39752068 12.67199038 -21.6875 16.41015625 C-22.3359375 18.1171875 -22.3359375 18.1171875 -23.3359375 19.1171875 C-28.57644383 19.5728837 -28.57644383 19.5728837 -31.2109375 17.9921875 C-32.8690393 15.22868451 -32.69040719 13.2875007 -32.3359375 10.1171875 C-29.48742362 7.10811021 -25.90704216 5.18862883 -22.3359375 3.1171875 C-21.583125 2.67761719 -20.8303125 2.23804688 -20.0546875 1.78515625 C-13.71678733 -1.46416576 -6.79500231 -2.56801091 0 0 Z " fill="#F7F7F7" transform="translate(850.3359375,254.8828125)"/>
<path d="M0 0 C3.98562946 3.16787554 5.93551541 6.38155797 6.62744141 11.43432617 C6.65488548 12.82185631 6.66229916 14.20989044 6.65234375 15.59765625 C6.66413666 16.33671707 6.67592957 17.07577789 6.68807983 17.8372345 C6.72316961 20.18077006 6.73249474 22.52341127 6.73828125 24.8671875 C6.75463835 27.22140744 6.77666864 29.57523183 6.80990601 31.92927551 C6.82949999 33.38936652 6.83887474 34.8496392 6.83682251 36.30986023 C6.87554774 39.9888409 7.01489552 41.5321089 9.11328125 44.6796875 C12.19693996 44.9299032 12.19693996 44.9299032 15.11328125 44.6796875 C15.60828125 46.6596875 15.60828125 46.6596875 16.11328125 48.6796875 C14.25146798 49.88775728 12.3731659 51.07044047 10.48828125 52.2421875 C9.44414063 52.90347656 8.4 53.56476562 7.32421875 54.24609375 C3.61651079 55.90148161 1.95273767 55.84679499 -1.88671875 54.6796875 C-4.26171875 52.7421875 -4.26171875 52.7421875 -5.88671875 50.6796875 C-5.88671875 50.0196875 -5.88671875 49.3596875 -5.88671875 48.6796875 C-6.95599609 49.31197266 -6.95599609 49.31197266 -8.046875 49.95703125 C-18.41256107 55.88625949 -18.41256107 55.88625949 -23.88671875 55.6796875 C-29.73089739 53.87551871 -32.97793297 51.14820477 -35.88671875 45.6796875 C-37.13722266 41.92817577 -37.49306863 38.56920013 -36.88671875 34.6796875 C-33.15910648 27.89010801 -26.85125491 26.29035586 -19.88671875 23.6796875 C-17.63318605 22.75071139 -15.38300477 21.81355179 -13.13671875 20.8671875 C-11.38671875 20.13802083 -9.63671875 19.40885417 -7.88671875 18.6796875 C-7.58732005 11.45936544 -7.58732005 11.45936544 -9.88671875 4.6796875 C-13.26522828 4.39444748 -16.51623899 4.25428714 -19.88671875 4.6796875 C-22.02025792 6.67812999 -22.02025792 6.67812999 -22.88671875 9.6796875 C-23.42208756 10.93239777 -23.9639238 12.18236097 -24.51171875 13.4296875 C-24.96546875 14.5021875 -25.41921875 15.5746875 -25.88671875 16.6796875 C-26.88671875 17.6796875 -26.88671875 17.6796875 -29.19921875 17.9921875 C-31.88671875 17.6796875 -31.88671875 17.6796875 -34.26171875 16.0546875 C-35.88671875 13.6796875 -35.88671875 13.6796875 -35.796875 10.7578125 C-34.36017288 5.89892293 -31.13966617 4.7510452 -26.9375 2.29296875 C-17.17607847 -2.86896095 -10.18617858 -5.53635994 0 0 Z " fill="#F8F8F7" transform="translate(1040.88671875,491.3203125)"/>
<path d="M0 0 C3.81628832 1.54572776 5.97025743 3.88771245 8.6875 6.9375 C9.12537842 7.42766602 9.56325684 7.91783203 10.0144043 8.42285156 C13.63808983 12.51151461 17.08834492 16.73334769 20.51953125 20.984375 C23.44968382 24.54670222 26.46762878 28.02470796 29.5 31.5 C33.23418958 35.78202781 36.92459276 40.08332047 40.5 44.5 C44.57757127 49.53348541 48.80505915 54.42333309 53.05810547 59.30810547 C57.98012092 64.96419371 62.83072133 70.67768348 67.66162109 76.41162109 C69.91767427 79.08908953 72.17706606 81.76372957 74.4375 84.4375 C74.88738281 84.96988281 75.33726562 85.50226563 75.80078125 86.05078125 C78.71275946 89.49221005 81.64371267 92.91671041 84.58398438 96.33398438 C88.59165256 100.99181926 92.56841613 105.66303636 96.4375 110.4375 C100.58060991 115.54307465 104.8823045 120.49800053 109.20288086 125.45288086 C113.10421641 129.93750851 116.88485162 134.5048167 120.625 139.125 C123.52495875 142.63547639 126.50758138 146.06832727 129.5 149.5 C133.23404443 153.78216104 136.92458646 158.08331268 140.5 162.5 C145.62862131 168.82873745 150.99274671 174.94705834 156.34033203 181.09033203 C162.4607846 188.13272391 168.56030337 195.19002801 174.4375 202.4375 C178.53915271 207.48854068 182.78591011 212.40128396 187.05786133 217.30786133 C191.97866074 222.96244531 196.82773721 228.67463329 201.65722656 234.40722656 C203.47527473 236.56376224 205.29743274 238.71680468 207.11987305 240.86962891 C208.04087159 241.95762259 208.9616068 243.04583924 209.88208008 244.13427734 C212.13277449 246.79560101 214.38583301 249.45483969 216.64453125 252.109375 C224.1953301 260.9917693 231.61583543 269.97877043 239 279 C239.56541504 279.69061523 240.13083008 280.38123047 240.71337891 281.09277344 C246.42032839 288.07106484 252.08340197 295.0770206 257.625 302.1875 C261.15234272 306.71337556 264.76999794 311.1397334 268.5 315.5 C272.46387245 320.13953253 276.33527261 324.84189715 280.125 329.625 C280.59873047 330.21732422 281.07246094 330.80964844 281.56054688 331.41992188 C283.54261048 333.94068519 284.97733462 335.93200386 286 339 C283.75 339.28125 283.75 339.28125 281 339 C279 337.15625 279 337.15625 277 334.5 C275.84177734 333.00146484 275.84177734 333.00146484 274.66015625 331.47265625 C274.23879395 330.91852051 273.81743164 330.36438477 273.38330078 329.79345703 C270.80550995 326.45133712 268.11020222 323.20379431 265.4375 319.9375 C261.315269 314.86833365 257.21669685 309.7813712 253.14453125 304.671875 C249.78309805 300.48385986 246.38208543 296.32805842 242.98828125 292.16625977 C239.89232256 288.36006746 236.83684141 284.52796207 233.82958984 280.65136719 C228.0161193 273.1576905 221.87866541 265.99177572 215.62744141 258.86132812 C212.98468173 255.8387659 210.36462474 252.79690824 207.75 249.75 C207.25048828 249.16790771 206.75097656 248.58581543 206.23632812 247.98608398 C203.29714838 244.54909283 200.41113812 241.07530147 197.5625 237.5625 C193.41939009 232.45692535 189.1176955 227.50199947 184.79711914 222.54711914 C181.63534162 218.91262149 178.53149794 215.24479157 175.5 211.5 C171.42178284 206.46571728 167.19382942 201.57489292 162.93969727 196.68969727 C158.95283667 192.10883911 155.0118092 187.49249713 151.09863281 182.84863281 C147.71518052 178.83615816 144.29899816 174.85289612 140.875 170.875 C137.38176144 166.81379124 133.93551293 162.72481029 130.5625 158.5625 C126.41939009 153.45692535 122.1176955 148.50199947 117.79711914 143.54711914 C113.89578359 139.06249149 110.11514838 134.4951833 106.375 129.875 C103.47504125 126.36452361 100.49241862 122.93167273 97.5 119.5 C93.76595557 115.21783896 90.07541354 110.91668732 86.5 106.5 C81.37137869 100.17126255 76.00725329 94.05294166 70.65966797 87.90966797 C64.5392154 80.86727609 58.43969663 73.80997199 52.5625 66.5625 C48.41939009 61.45692535 44.1176955 56.50199947 39.79711914 51.54711914 C35.89578359 47.06249149 32.11514838 42.4951833 28.375 37.875 C25.47504015 34.36452229 22.49238242 30.93170608 19.5 27.5 C14.86077523 22.17873393 10.31132982 16.80747226 5.8828125 11.30859375 C4.26161376 9.32077538 2.58485685 7.41074167 0.875 5.5 C0.25625 4.675 -0.3625 3.85 -1 3 C-0.67 2.01 -0.34 1.02 0 0 Z " fill="#EFEFEF" transform="translate(324,261)"/>
<path d="M0 0 C5.10756187 2.35010515 8.87315846 6.37227452 12 11 C12.93385816 13.80157448 13.16354595 15.65447803 13.1875 18.5625 C13.20167969 19.34753906 13.21585938 20.13257813 13.23046875 20.94140625 C13 23 13 23 11 25 C0.58511106 26.81874502 -10.46852621 26.10008792 -21 26 C-19.59025951 33.5309821 -18.197128 40.01324856 -12 45 C-7.04004295 46.65331902 -1.59730459 47.03717868 3.328125 45.0703125 C4.67712528 44.34584938 6.00722623 43.58424595 7.30859375 42.77734375 C9 42 9 42 12 43 C11.92095422 45.68755653 11.45570449 47.46811804 9.69140625 49.52734375 C2.99526419 55.60490456 -4.09888526 58.82031182 -13.22265625 58.44921875 C-19.46420782 57.43968509 -24.25463748 54.59359187 -28.875 50.375 C-34.24709686 41.84284617 -36.5491044 33.06317429 -35 23 C-31.84536446 13.21467769 -25.93044889 6.49327811 -17.1484375 1.3203125 C-11.55140367 -1.02683072 -5.94736327 -0.84186421 0 0 Z " fill="#F7F7F7" transform="translate(740,254)"/>
<path d="M0 0 C5.88559015 3.17404707 9.75825446 7.64976338 11.875 14 C12.0625 17.5625 12.0625 17.5625 11.875 21 C8.8418241 24.0331759 5.15707567 23.74141659 1.0625 24.125 C0.21260498 24.20991699 -0.63729004 24.29483398 -1.51293945 24.38232422 C-8.40473372 25.02840962 -15.20268329 25.22370144 -22.125 25 C-22.09120293 32.30016766 -20.18034082 36.73453499 -15.125 42 C-11.46886871 45.1620595 -8.16232334 45.50811239 -3.47265625 45.3671875 C-0.21718608 44.85801246 2.30967844 43.60231423 5.1484375 41.97265625 C6.875 41 6.875 41 9.875 40 C10.625 42.2421875 10.625 42.2421875 10.875 45 C6.95894882 50.13981718 1.08538446 54.34389748 -5.125 56 C-14.44530436 56.82794582 -20.45971643 56.07908716 -28.25 50.9375 C-33.87730401 45.79426515 -36.32160792 39.66325764 -36.66821289 32.09106445 C-36.76329252 21.78274793 -34.50132629 13.43850007 -27.30859375 5.828125 C-18.86250753 -1.24301695 -10.30895849 -4.49482863 0 0 Z " fill="#F7F7F7" transform="translate(929.125,490)"/>
<path d="M0 0 C14.85 0 29.7 0 45 0 C44.01 4.62 43.02 9.24 42 14 C41.52626953 16.28744141 41.52626953 16.28744141 41.04296875 18.62109375 C39.36162465 26.12188456 37.97416005 31.77260996 32 37 C27.3073112 39.8908547 22.34150341 39.62795613 17 39 C11.97631981 36.53382972 8.19395562 33.25458968 6.23046875 27.90234375 C3.5958664 18.78690139 1.93947647 9.21251322 0 0 Z " fill="#FAFAFA" transform="translate(717,440)"/>
<path d="M0 0 C14.52 0 29.04 0 44 0 C43.21527257 6.27781942 42.19061227 12.03031377 40.6875 18.125 C40.48705078 18.99253906 40.28660156 19.86007813 40.08007812 20.75390625 C38.47132266 27.29850278 36.48154771 32.12617826 30.9375 36.3125 C26.42905912 38.9024554 23.17414926 39.50893271 18 39 C11.15865368 35.86176774 7.61605136 31.99088834 5 25 C4.53467332 23.27746331 4.10602632 21.54467784 3.7109375 19.8046875 C3.49179687 18.84175781 3.27265625 17.87882812 3.046875 16.88671875 C2.82515625 15.89285156 2.6034375 14.89898437 2.375 13.875 C2.14554688 12.87339844 1.91609375 11.87179688 1.6796875 10.83984375 C0 3.39122954 0 3.39122954 0 0 Z " fill="#FCFCFC" transform="translate(530,206)"/>
<path d="M0 0 C1.27746094 -0.01675781 2.55492187 -0.03351563 3.87109375 -0.05078125 C7.8195316 0.33779517 10.23225155 1.18414573 13.5625 3.3125 C14.6875 6.1875 14.6875 6.1875 14.5625 9.3125 C12.625 12.1875 12.625 12.1875 10.5625 14.3125 C7.38734235 13.6860115 5.13853109 12.57895379 2.4375 10.8125 C-1.80828494 8.05674525 -4.21376476 6.80036909 -9.4375 7.3125 C-13.57366188 9.62105547 -15.46891088 12.40189736 -16.9296875 16.91015625 C-18.51089667 24.39049192 -18.20577236 31.54038189 -14.71875 38.40234375 C-12.31855611 41.98068159 -9.30238256 44.38005872 -5.4375 46.3125 C0.84863148 47.02523981 5.50794989 46.41026728 10.96875 43.1875 C12.5625 42.3125 12.5625 42.3125 14.5625 42.3125 C15.24609375 44.09375 15.24609375 44.09375 15.5625 46.3125 C11.44973456 52.66985945 4.51661836 55.99446055 -2.4375 58.3125 C-10.16005892 59.3043883 -16.04811243 57.74004541 -22.4375 53.3125 C-28.52721253 47.94393764 -31.86612545 42.31363232 -32.78515625 34.26953125 C-33.18830138 25.45202374 -31.37353152 19.1943255 -25.828125 12.31640625 C-18.70473512 4.71921291 -10.49668898 0.03171205 0 0 Z " fill="#F7F7F7" transform="translate(794.4375,253.6875)"/>
<path d="M0 0 C2 2 2 2 2.3125 4.9375 C2 8 2 8 0.8125 9.9375 C-1 11 -1 11 -3.3125 10.9375 C-6.61850015 9.78424414 -9.13421669 7.99358839 -12 6 C-15.63782632 4.78739123 -18.17735999 4.60455448 -22 5 C-25.25755043 7.60604035 -27.5214512 10.10908212 -29 14 C-30.24921571 26.46480563 -30.24921571 26.46480563 -25.4375 37.5546875 C-21.53531676 41.47807825 -18.46625874 44.12742349 -12.875 44.3125 C-8.42558521 44.29817016 -5.56484977 43.1064159 -1.82421875 40.77734375 C0.49267282 39.79006019 1.66979234 40.18211254 4 41 C1.30654413 47.33670934 -4.80598329 52.42055763 -11.125 55 C-18.99606858 57.36595971 -25.79605706 55.59666665 -33 52 C-35.80081351 49.96257581 -37.90532784 47.74925721 -40 45 C-40.433125 44.44957031 -40.86625 43.89914062 -41.3125 43.33203125 C-45.4991673 36.74675248 -44.83341103 28.45605227 -44 21 C-41.56244991 12.07012901 -35.1458581 6.07375179 -27.37109375 1.4296875 C-18.59023977 -3.15048969 -8.8773239 -5.62952247 0 0 Z " fill="#F7F7F7" transform="translate(994,491)"/>
<path d="M0 0 C5.05842874 2.83077455 7.86703476 6.64569429 10 12 C10.43638278 14.97010361 10.46502719 17.87703887 10.4375 20.875 C10.4674707 22.02162109 10.4674707 22.02162109 10.49804688 23.19140625 C10.49211509 30.17904415 8.29015513 36.05311275 3.3125 41.0625 C-0.55772472 43.32621635 -2.4387561 43.33128042 -6.75390625 42.78515625 C-9.90957518 41.68204415 -11.64617145 40.39906226 -14 38 C-14.50925341 35.15106347 -14.70322666 32.9047371 -14.6640625 30.05859375 C-14.66884613 29.29450699 -14.67362976 28.53042023 -14.67855835 27.74317932 C-14.68195356 26.13190648 -14.67277728 24.52056441 -14.65185547 22.90942383 C-14.62504144 20.44131405 -14.65162841 17.97773566 -14.68359375 15.50976562 C-14.6802903 13.94269829 -14.67388539 12.37563378 -14.6640625 10.80859375 C-14.67418365 10.07104355 -14.68430481 9.33349335 -14.69473267 8.57359314 C-14.64697266 6.48999023 -14.64697266 6.48999023 -14 3 C-9.67582968 -0.52030688 -5.38178954 -1.13349335 0 0 Z " fill="#09090E" transform="translate(908,263)"/>
<path d="M0 0 C5.25728378 2.83893324 8.63294461 6.19753645 11.25 11.5625 C13.05066468 19.81554643 12.8350105 28.36017593 9 36 C7.06795771 38.87983663 5.16233962 41.41883019 2 43 C0.01171875 43.23828125 0.01171875 43.23828125 -2.3125 43.3125 C-3.45138672 43.36857422 -3.45138672 43.36857422 -4.61328125 43.42578125 C-8.0953589 42.80459228 -9.55730323 41.55413824 -12 39 C-12.44649301 36.04335206 -12.58732562 33.67737454 -12.48828125 30.734375 C-12.48120651 29.94097717 -12.47413177 29.14757935 -12.46684265 28.33013916 C-12.43891048 25.80245635 -12.37617989 23.27701012 -12.3125 20.75 C-12.28741535 19.03388622 -12.26460246 17.31773762 -12.24414062 15.6015625 C-12.18908839 11.40018329 -12.10282863 7.20047048 -12 3 C-4.90456432 -0.71524896 -4.90456432 -0.71524896 0 0 Z " fill="#181818" transform="translate(1094,497)"/>
<path d="M0 0 C0.92103516 -0.03738281 1.84207031 -0.07476563 2.79101562 -0.11328125 C9.43910807 -0.19821075 13.65134348 1.14407057 18.8125 5.375 C20.875 7.5 20.875 7.5 21.8125 9.375 C20.8125 12.375 20.8125 12.375 19.21459961 13.54370117 C15.94142268 14.67645526 12.80197419 14.68033237 9.37890625 14.67578125 C8.66395493 14.68006638 7.9490036 14.6843515 7.21238708 14.68876648 C5.70369524 14.69449654 4.19497577 14.6950198 2.6862793 14.69067383 C0.38607339 14.68751521 -1.91284371 14.71098258 -4.21289062 14.73632812 C-5.68229005 14.73860151 -7.15169292 14.73930443 -8.62109375 14.73828125 C-9.30457382 14.747491 -9.98805389 14.75670074 -10.69224548 14.76618958 C-15.02855487 14.72446867 -17.6829974 13.92898593 -21.1875 11.375 C-19.74929187 6.34127156 -17.28504485 4.38544111 -13.1875 1.375 C-8.81868631 -0.08127123 -4.57804833 0.06903157 0 0 Z " fill="#F9F9F9" transform="translate(739.1875,530.625)"/>
<path d="M0 0 C1.24426758 -0.02416992 1.24426758 -0.02416992 2.51367188 -0.04882812 C8.83481338 -0.05381719 13.84130188 0.71137569 18.68359375 5.13671875 C19.39708984 6.05904297 19.39708984 6.05904297 20.125 7 C20.61871094 7.62261719 21.11242187 8.24523437 21.62109375 8.88671875 C21.97300781 9.35722656 22.32492187 9.82773437 22.6875 10.3125 C19.830448 13.299418 18.57631897 14.27443974 14.29516602 14.45776367 C12.8439549 14.47116448 11.39267762 14.47830342 9.94140625 14.48046875 C8.79103127 14.48546135 8.79103127 14.48546135 7.61741638 14.49055481 C5.99421794 14.49562063 4.37100907 14.49796324 2.74780273 14.49780273 C0.26333467 14.49998827 -2.22068872 14.51814457 -4.70507812 14.53710938 C-6.28124848 14.54004355 -7.85742095 14.54202818 -9.43359375 14.54296875 C-10.17741806 14.55015427 -10.92124237 14.55733978 -11.68760681 14.56474304 C-15.44559384 14.54808426 -17.10458927 14.45110716 -20.3125 12.3125 C-20.09104028 8.43695494 -19.37536207 7.3725682 -16.5 4.625 C-10.71856439 0.43062515 -6.99645322 -0.02680633 0 0 Z " fill="#F8F8F8" transform="translate(551.3125,295.6875)"/>
<path d="M0 0 C0.08687496 3.12482562 0.14034568 6.24934246 0.1875 9.375 C0.22520508 10.70917969 0.22520508 10.70917969 0.26367188 12.0703125 C0.27817383 13.34648438 0.27817383 13.34648438 0.29296875 14.6484375 C0.31653442 15.82672119 0.31653442 15.82672119 0.34057617 17.02880859 C0.22818604 17.67930176 0.1157959 18.32979492 0 19 C-3.67403534 21.4493569 -6.73178115 21.81585672 -11 21 C-13.63916623 18.88866702 -14.68704913 17.36161081 -15.4453125 14.0625 C-15.63907915 11.8383959 -15.57804084 10.15889497 -15 8 C-11.04457582 3.76204552 -5.99012033 0 0 0 Z " fill="#1D1D1D" transform="translate(1034,516)"/>
<path d="M0 0 C0.08685287 3.29150125 0.14033895 6.5827096 0.1875 9.875 C0.22520508 11.28072266 0.22520508 11.28072266 0.26367188 12.71484375 C0.27817383 14.05869141 0.27817383 14.05869141 0.29296875 15.4296875 C0.31653442 16.67081299 0.31653442 16.67081299 0.34057617 17.93701172 C0.22818604 18.61779785 0.1157959 19.29858398 0 20 C-3.51253146 22.34168764 -4.86469356 22.49623677 -9 22 C-12.05753304 20.43726089 -13.55236263 19.18545172 -14.77734375 15.94140625 C-15.2931919 13.413324 -15.44640929 11.54585894 -15 9 C-11.89137609 4.66846399 -5.41870372 0 0 0 Z " fill="#0B0C0F" transform="translate(846,281)"/>
<path d="M0 0 C3.6875 0.4375 3.6875 0.4375 6.5625 2.375 C9.27568086 6.28517241 9.82411818 9.71441443 9.6875 14.4375 C8.6875 15.4375 8.6875 15.4375 6.82983398 15.55102539 C6.03907471 15.54578857 5.24831543 15.54055176 4.43359375 15.53515625 C3.57958984 15.53193359 2.72558594 15.52871094 1.84570312 15.52539062 C0.94787109 15.51701172 0.05003906 15.50863281 -0.875 15.5 C-1.77669922 15.49548828 -2.67839844 15.49097656 -3.60742188 15.48632812 C-5.84251314 15.47450225 -8.07747437 15.4580222 -10.3125 15.4375 C-9.54234487 8.74429616 -7.62105596 1.00655456 0 0 Z " fill="#13100F" transform="translate(917.3125,493.5625)"/>
<path d="M0 0 C2.57285724 2.172635 4.48996919 3.97993838 6 7 C6.125 10.5625 6.125 10.5625 6 14 C5 15 5 15 3.23413086 15.11352539 C2.48526611 15.10828857 1.73640137 15.10305176 0.96484375 15.09765625 C0.15595703 15.09443359 -0.65292969 15.09121094 -1.48632812 15.08789062 C-2.33646484 15.07951172 -3.18660156 15.07113281 -4.0625 15.0625 C-4.91650391 15.05798828 -5.77050781 15.05347656 -6.65039062 15.04882812 C-8.76695663 15.03700373 -10.88348685 15.01906769 -13 15 C-13.21750726 9.62232039 -12.33684714 7.29023203 -9 3 C-8.319375 2.071875 -8.319375 2.071875 -7.625 1.125 C-4.96484985 -0.71664241 -3.14085422 -0.50253668 0 0 Z " fill="#141919" transform="translate(733,259)"/>
<path d="M0 0 C1.62463842 -0.05395478 3.24978541 -0.09277195 4.875 -0.125 C5.77992188 -0.14820313 6.68484375 -0.17140625 7.6171875 -0.1953125 C10 0 10 0 12 2 C11.66666667 4 11.33333333 6 11 8 C11.66 8.66 12.32 9.32 13 10 C12.8125 12.5 12.8125 12.5 12 15 C8.68629 17.20914 7.6553979 17.22481553 3.8125 17.125 C2.91144531 17.10695313 2.01039063 17.08890625 1.08203125 17.0703125 C0.39496094 17.04710937 -0.29210937 17.02390625 -1 17 C-0.34 16.34 0.32 15.68 1 15 C1.30059943 12.63490639 1.49515012 10.25558119 1.625 7.875 C1.69976563 6.59367187 1.77453125 5.31234375 1.8515625 3.9921875 C1.90054688 3.00476563 1.94953125 2.01734375 2 1 C1.34 0.67 0.68 0.34 0 0 Z " fill="#C1C1C2" transform="translate(960,295)"/>
<path d="M0 0 C3.96 0 7.92 0 12 0 C12 1.65 12 3.3 12 5 C11.34 4.34 10.68 3.68 10 3 C7.42938689 2.35232207 7.42938689 2.35232207 5 2 C5 3.98 5 5.96 5 8 C6.98 7.34 8.96 6.68 11 6 C11 7.98 11 9.96 11 12 C9.02 11.34 7.04 10.68 5 10 C5 11.98 5 13.96 5 16 C7.97065509 15.65772428 7.97065509 15.65772428 11 15 C11.33 14.34 11.66 13.68 12 13 C12.66 13 13.32 13 14 13 C13.67 14.65 13.34 16.3 13 18 C8.71 18 4.42 18 0 18 C0.33 17.34 0.66 16.68 1 16 C1.23029956 13.62876754 1.41119942 11.25258057 1.5625 8.875 C1.64628906 7.59367188 1.73007813 6.31234375 1.81640625 4.9921875 C1.90728516 3.51105469 1.90728516 3.51105469 2 2 C1.34 2 0.68 2 0 2 C0 1.34 0 0.68 0 0 Z " fill="#D9D9D8" transform="translate(1190,529)"/>
<path d="M0 0 C0.66 0 1.32 0 2 0 C2.8394882 2.10171867 3.67139656 4.20646625 4.5 6.3125 C4.9640625 7.48425781 5.428125 8.65601563 5.90625 9.86328125 C7 13 7 13 7 16 C7.99 16 8.98 16 10 16 C10 16.66 10 17.32 10 18 C7.69 18 5.38 18 3 18 C3 16.02 3 14.04 3 12 C1.02 12 -0.96 12 -3 12 C-2.67 13.98 -2.34 15.96 -2 18 C-3.98 18 -5.96 18 -8 18 C-8 17.34 -8 16.68 -8 16 C-7.01 16 -6.02 16 -5 16 C-4.87753906 15.29488281 -4.75507812 14.58976563 -4.62890625 13.86328125 C-3.96594799 10.84496817 -3.01824425 8.08110558 -1.9375 5.1875 C-1.57527344 4.21167969 -1.21304687 3.23585938 -0.83984375 2.23046875 C-0.42412109 1.12638672 -0.42412109 1.12638672 0 0 Z " fill="#DBDBDB" transform="translate(1138,529)"/>
<path d="M0 0 C4.95 0 9.9 0 15 0 C15 1.65 15 3.3 15 5 C14.34 5 13.68 5 13 5 C13 4.01 13 3.02 13 2 C11.68 2 10.36 2 9 2 C9 6.62 9 11.24 9 16 C9.66 16 10.32 16 11 16 C11 16.66 11 17.32 11 18 C8.36 18 5.72 18 3 18 C3 17.34 3 16.68 3 16 C3.99 16 4.98 16 6 16 C6 11.38 6 6.76 6 2 C2.0285831 2.62841973 2.0285831 2.62841973 0 5 C0 3.35 0 1.7 0 0 Z " fill="#D2D2D2" transform="translate(1210,529)"/>
<path d="M0 0 C0.94875 0.04125 1.8975 0.0825 2.875 0.125 C3.205 1.775 3.535 3.425 3.875 5.125 C3.215 4.465 2.555 3.805 1.875 3.125 C0.555 3.125 -0.765 3.125 -2.125 3.125 C-2.125 4.115 -2.125 5.105 -2.125 6.125 C-1.155625 6.74375 -0.18625 7.3625 0.8125 8 C3.875 10.125 3.875 10.125 4.9375 12.6875 C4.875 15.125 4.875 15.125 3.875 16.9375 C0.90007445 18.70386204 -1.74300486 18.31643369 -5.125 18.125 C-5.455 16.475 -5.785 14.825 -6.125 13.125 C-5.135 13.62 -5.135 13.62 -4.125 14.125 C-4.125 14.785 -4.125 15.445 -4.125 16.125 C-2.145 16.125 -0.165 16.125 1.875 16.125 C1.82731597 14.24619128 1.82731597 14.24619128 0.875 12.125 C-0.135625 11.50625 -1.14625 10.8875 -2.1875 10.25 C-3.156875 9.54875 -4.12625 8.8475 -5.125 8.125 C-5.625 5 -5.625 5 -5.125 2.125 C-3.125 0.125 -3.125 0.125 0 0 Z " fill="#DEDEDE" transform="translate(1160.125,528.875)"/>
<path d="M0 0 C1.670625 0.061875 1.670625 0.061875 3.375 0.125 C3.375 1.775 3.375 3.425 3.375 5.125 C2.715 4.465 2.055 3.805 1.375 3.125 C0.055 3.125 -1.265 3.125 -2.625 3.125 C-2.625 4.115 -2.625 5.105 -2.625 6.125 C-1.655625 6.74375 -0.68625 7.3625 0.3125 8 C3.375 10.125 3.375 10.125 4.4375 12.6875 C4.375 15.125 4.375 15.125 3.3125 16.9375 C0.56013382 18.62443411 -1.4607765 18.46161952 -4.625 18.125 C-5.285 17.465 -5.945 16.805 -6.625 16.125 C-6.295 15.135 -5.965 14.145 -5.625 13.125 C-5.191875 13.62 -4.75875 14.115 -4.3125 14.625 C-2.62759517 16.45718192 -2.62759517 16.45718192 0.375 16.125 C0.375 14.805 0.375 13.485 0.375 12.125 C-0.615 11.50625 -1.605 10.8875 -2.625 10.25 C-3.615 9.54875 -4.605 8.8475 -5.625 8.125 C-6.125 5 -6.125 5 -5.625 2.125 C-3.625 0.125 -3.625 0.125 0 0 Z " fill="#E5E5E5" transform="translate(1178.625,528.875)"/>
<path d="M0 0 C2.31 0 4.62 0 7 0 C6.01 0.495 6.01 0.495 5 1 C5 5.62 5 10.24 5 15 C5.66 15 6.32 15 7 15 C7 15.66 7 16.32 7 17 C4.69 17 2.38 17 0 17 C0.33 16.34 0.66 15.68 1 15 C1.23029956 12.62876754 1.41119942 10.25258057 1.5625 7.875 C1.64628906 6.59367187 1.73007812 5.31234375 1.81640625 3.9921875 C1.90728516 2.51105469 1.90728516 2.51105469 2 1 C1.34 0.67 0.68 0.34 0 0 Z " fill="#D1D1D2" transform="translate(945,295)"/>
<path d="M0 0 C1.62463842 -0.05395478 3.24978541 -0.09277195 4.875 -0.125 C5.77992188 -0.14820313 6.68484375 -0.17140625 7.6171875 -0.1953125 C10 0 10 0 12 2 C11.625 4.625 11.625 4.625 11 7 C10.01 7 9.02 7 8 7 C8 5.35 8 3.7 8 2 C6.68 1.67 5.36 1.34 4 1 C4.33 5.95 4.66 10.9 5 16 C4.01 16 3.02 16 2 16 C2 11.05 2 6.1 2 1 C1.34 0.67 0.68 0.34 0 0 Z " fill="#FDFDFD" transform="translate(960,295)"/>
<path d="M0 0 C2 1 2 1 3.125 3.375 C4 6 4 6 4 9 C2.02 9 0.04 9 -2 9 C-1.67 10.98 -1.34 12.96 -1 15 C-2.98 15 -4.96 15 -7 15 C-7 14.34 -7 13.68 -7 13 C-6.01 13 -5.02 13 -4 13 C-3.896875 12.34 -3.79375 11.68 -3.6875 11 C-2.80786436 7.16158991 -1.43030104 3.66903309 0 0 Z " fill="#ADADAD" transform="translate(1137,532)"/>
<path d="M0 0 C3.465 1.98 3.465 1.98 7 4 C6.67 5.65 6.34 7.3 6 9 C3.28071483 8.62492618 2.15781339 8.15781339 0.1875 6.1875 C-1 4 -1 4 -0.6875 1.75 C-0.460625 1.1725 -0.23375 0.595 0 0 Z " fill="#1E1E1E" transform="translate(1173,537)"/>
<path d="M0 0 C0.33 0 0.66 0 1 0 C1 1.65 1 3.3 1 5 C-2.08809695 6.76462683 -3.23312136 7 -7 7 C-7 5.02 -7 3.04 -7 1 C-5.33388095 0.957279 -3.66617115 0.95936168 -2 1 C-1.67 1.33 -1.34 1.66 -1 2 C-0.67 1.34 -0.34 0.68 0 0 Z " fill="#1E1E1E" transform="translate(1202,530)"/>
<path d="M0 0 C0.66 0 1.32 0 2 0 C1.67 2.64 1.34 5.28 1 8 C5.95 8.33 10.9 8.66 16 9 C16 9.33 16 9.66 16 10 C10.06 10 4.12 10 -2 10 C-2 3.25 -2 3.25 0 0 Z " fill="#242728" transform="translate(722,264)"/>
<path d="M0 0 C0.33 1.65 0.66 3.3 1 5 C-0.98 5 -2.96 5 -5 5 C-5.66 3.68 -6.32 2.36 -7 1 C-4.53721199 -0.231394 -2.7204945 -0.07159196 0 0 Z " fill="#1D1D1B" transform="translate(1161,540)"/>
<path d="M0 0 C1.98 0 3.96 0 6 0 C6.625 1.875 6.625 1.875 7 4 C6.34 4.66 5.68 5.32 5 6 C4.01 6 3.02 6 2 6 C1.34 5.34 0.68 4.68 0 4 C0 2.68 0 1.36 0 0 Z " fill="#1B1B1A" transform="translate(1135,541)"/>
<path d="M0 0 C2.375 1 2.375 1 4 2 C3.67 2.66 3.34 3.32 3 4 C1.783125 3.773125 0.56625 3.54625 -0.6875 3.3125 C-3.97620691 2.88023657 -4.87346463 2.93936847 -8 4.4375 C-8.99 5.2109375 -8.99 5.2109375 -10 6 C-9.6875 4.125 -9.6875 4.125 -9 2 C-5.51195905 -0.32536063 -4.09859246 -0.33457898 0 0 Z " fill="#212122" transform="translate(791,260)"/>
<path d="M0 0 C0.66 0 1.32 0 2 0 C1.67 1.65 1.34 3.3 1 5 C-3.29 5 -7.58 5 -12 5 C-9.20209497 2.20209497 -6.82020154 2.5884929 -2.99609375 2.34375 C-2.33738281 2.2303125 -1.67867187 2.116875 -1 2 C-0.67 1.34 -0.34 0.68 0 0 Z " fill="#CDCDCD" transform="translate(1202,542)"/>
<path d="M0 0 C2.475 0.495 2.475 0.495 5 1 C4.67 2.65 4.34 4.3 4 6 C2.68 6 1.36 6 0 6 C0 4.02 0 2.04 0 0 Z " fill="#040406" transform="translate(965,304)"/>
<path d="M0 0 C3.78080393 1.26026798 4.77295425 2.93546534 7.1875 6.0625 C7.90292969 6.98160156 8.61835937 7.90070312 9.35546875 8.84765625 C10.16951172 9.91306641 10.16951172 9.91306641 11 11 C10.34 11.66 9.68 12.32 9 13 C7.68227638 11.40012144 6.37098863 9.79494034 5.0625 8.1875 C4.33160156 7.29417969 3.60070312 6.40085937 2.84765625 5.48046875 C1 3 1 3 0 0 Z " fill="#1B1918" transform="translate(559,544)"/>
<path d="M0 0 C2.31 0 4.62 0 7 0 C6.51917969 0.36738281 6.03835938 0.73476563 5.54296875 1.11328125 C3.38795083 3.74840443 3.49327654 5.82505636 3.3125 9.1875 C3.24675781 10.27417969 3.18101562 11.36085938 3.11328125 12.48046875 C3.07589844 13.31191406 3.03851562 14.14335937 3 15 C2.67 15 2.34 15 2 15 C2 10.38 2 5.76 2 1 C1.34 0.67 0.68 0.34 0 0 Z " fill="#EAEAEB" transform="translate(945,295)"/>
<path d="M0 0 C2.375 -0.125 2.375 -0.125 5 0 C5.66 0.66 6.32 1.32 7 2 C6.625 4.625 6.625 4.625 6 7 C5.01 7 4.02 7 3 7 C3.061875 6.21625 3.12375 5.4325 3.1875 4.625 C3.125625 3.75875 3.06375 2.8925 3 2 C2.01 1.34 1.02 0.68 0 0 Z " fill="#E2E2E3" transform="translate(965,295)"/>
<path d="M0 0 C1.32 0.33 2.64 0.66 4 1 C3.67 2.65 3.34 4.3 3 6 C2.01 6 1.02 6 0 6 C0 4.02 0 2.04 0 0 Z " fill="#0B0B0C" transform="translate(965,296)"/>
<path d="M0 0 C2.31 0 4.62 0 7 0 C7 1.65 7 3.3 7 5 C6.34 4.34 5.68 3.68 5 3 C2.41645782 2.83312552 2.41645782 2.83312552 0 3 C0 2.01 0 1.02 0 0 Z " fill="#BEBEBE" transform="translate(1175,529)"/>
<path d="M0 0 C1.32 0 2.64 0 4 0 C4.66 1.32 5.32 2.64 6 4 C5.01 4.33 4.02 4.66 3 5 C2.01 4.34 1.02 3.68 0 3 C0 2.01 0 1.02 0 0 Z " fill="#201F1D" transform="translate(1157,532)"/>
<path d="M0 0 C1.98 0 3.96 0 6 0 C6.33 1.65 6.66 3.3 7 5 C6.34 4.34 5.68 3.68 5 3 C2.41645782 2.83312552 2.41645782 2.83312552 0 3 C0 2.01 0 1.02 0 0 Z " fill="#C3C3C2" transform="translate(1157,529)"/>
<path d="M0 0 C0 1.98 0 3.96 0 6 C-1.98 5.34 -3.96 4.68 -6 4 C-6 3.34 -6 2.68 -6 2 C-1.125 0 -1.125 0 0 0 Z " fill="#D0D0D0" transform="translate(1201,535)"/>
<path d="M0 0 C0.66 0 1.32 0 2 0 C1.67 2.64 1.34 5.28 1 8 C0.34 8 -0.32 8 -1 8 C-0.67 5.36 -0.34 2.72 0 0 Z " fill="#2F2E2D" transform="translate(771,505)"/>
</svg>
